<svg width="253" height="63" viewBox="0 0 253 63" fill="none" xmlns="http://www.w3.org/2000/svg">
<rect x="45.0742" y="0.254395" width="7.48056" height="39.1981" fill="#1D58EF"/>
<rect x="54.9485" y="9.53027" width="7.18133" height="29.9222" fill="#1D58EF"/>
<rect x="64.5234" y="17.0107" width="7.18133" height="19.7487" fill="#1D58EF"/>
<rect x="35.499" y="9.53027" width="7.18133" height="28.4261" fill="#1D58EF"/>
<rect x="25.6248" y="18.5068" width="7.48056" height="13.465" fill="#1D58EF"/>
<rect x="16.0496" y="23.8931" width="7.18133" height="8.079" fill="#1D58EF"/>
<path d="M45.7371 22.4563C48.1893 23.4181 49.0389 26.2405 47.3918 27.9646C46.1156 29.3156 44.7814 29.798 39.6777 30.7162C37.3348 31.1256 34.9122 31.7654 34.2888 32.0974C33.2097 32.7582 33.2525 32.8031 35.9471 33.2569C47.1049 35.1566 55.927 35.5888 63.5071 34.6706C69.6622 33.8704 72.2056 32.9537 77.2217 29.5653C81.2426 26.8361 82.2857 26.4964 83.3986 27.666C84.597 28.9256 83.9905 30.1727 80.9749 32.7918C72.6294 39.9953 62.2689 44.9014 50.8909 46.9882C48.3819 47.4923 42.8922 47.9599 38.4463 48.1335C29.9733 48.4273 28.6357 48.7266 24.9873 51.1743C22.043 53.1054 18.4585 56.7421 16.5825 59.7063C15.6034 61.235 14.6192 62.4891 14.4094 62.493C13.7389 62.5511 0.562136 53.5936 0.552843 53.0902C0.53848 52.3123 6.26757 39.8014 7.93547 36.9326C12.8595 28.5564 18.9321 25.5604 35.2628 23.4737C38.8225 23.0417 42.5072 22.5617 43.4277 22.4074C44.3491 22.2988 45.3981 22.2795 45.7371 22.4563Z" fill="#EEAB6C"/>
<path d="M97.5715 16.2C100.692 16.2 103.238 16.4933 105.212 17.08C107.212 17.6667 108.758 18.7733 109.852 20.4C110.972 22.0267 111.532 24.36 111.532 27.4C111.532 30.6533 110.945 33.1333 109.772 34.84C108.598 36.52 107.025 37.64 105.052 38.2C103.078 38.7333 100.585 39 97.5715 39H89.5715V16.2H97.5715ZM102.932 33.56C103.252 33.24 103.478 32.4133 103.612 31.08C103.745 29.7467 103.812 28.52 103.812 27.4C103.812 25.9867 103.705 24.8667 103.492 24.04C103.305 23.1867 102.958 22.5067 102.452 22C101.652 21.12 100.278 20.68 98.3315 20.68C97.9849 20.68 97.4649 20.7067 96.7715 20.76V34.04C97.2249 34.0933 97.9315 34.12 98.8915 34.12C99.8782 34.12 100.745 34.08 101.492 34C102.265 33.8933 102.745 33.7467 102.932 33.56ZM125.328 39L124.688 36.48C123.461 38.48 121.754 39.48 119.568 39.48C117.781 39.48 116.314 38.9867 115.168 38C114.048 36.9867 113.488 35.5733 113.488 33.76C113.488 32.64 113.808 31.6667 114.448 30.84C115.114 29.9867 116.021 29.3867 117.168 29.04C118.661 28.6133 120.968 28.3733 124.088 28.32C124.088 26.56 124.008 25.6267 123.848 25.52C123.714 25.4133 123.288 25.36 122.568 25.36C122.114 25.36 121.488 25.3867 120.688 25.44C119.408 25.4933 117.674 25.64 115.488 25.88C115.274 24.44 115.114 22.8933 115.008 21.24C116.421 20.9467 117.901 20.7067 119.448 20.52C120.994 20.3067 122.381 20.2 123.608 20.2C125.741 20.2 127.341 20.56 128.408 21.28C129.474 21.9733 130.168 22.8933 130.488 24.04C130.808 25.1867 130.954 26.64 130.928 28.4L130.888 34.28L131.008 39H125.328ZM121.888 35C122.581 35 123.314 34.8667 124.088 34.6V31.64H123.768C121.794 31.64 120.701 31.7467 120.488 31.96C120.354 32.0933 120.248 32.2933 120.168 32.56C120.114 32.8267 120.088 33.08 120.088 33.32C120.088 33.96 120.234 34.4 120.528 34.64C120.821 34.88 121.274 35 121.888 35ZM142.496 31.44C142.496 31.92 142.51 32.4267 142.536 32.96C142.563 33.4667 142.643 33.7867 142.776 33.92C142.963 34.1067 143.616 34.2 144.736 34.2L146.096 34.16C146.336 35.44 146.456 36.92 146.456 38.6C145.95 38.7867 145.203 38.96 144.216 39.12C143.256 39.28 142.336 39.36 141.456 39.36C139.616 39.36 138.19 38.96 137.176 38.16C136.19 37.3333 135.696 36.0667 135.696 34.36V24.52H132.696V20.88L135.696 20.6L137.496 16.2L142.496 15.92V20.6H146.736V24.52H142.496V31.44ZM162.342 16.2H169.942L163.782 39H153.342L147.142 16.2H154.782L158.462 34.04H158.662L162.342 16.2ZM175.154 18.32C174.248 18.32 173.461 18.0133 172.794 17.4C172.154 16.7867 171.834 16.0533 171.834 15.2C171.834 14.3467 172.154 13.6133 172.794 13C173.461 12.3867 174.248 12.08 175.154 12.08C176.061 12.08 176.834 12.3867 177.474 13C178.114 13.6133 178.434 14.3467 178.434 15.2C178.434 16.0533 178.114 16.7867 177.474 17.4C176.834 18.0133 176.061 18.32 175.154 18.32ZM171.714 20.6H178.554V39H171.714V20.6ZM197.906 34.52V39H181.386V34.4L190.266 24.96H181.626V20.6H197.706V25.16L188.866 34.52H197.906ZM220.193 34H213.553L212.353 39H204.993L212.353 16.2H221.753L228.793 39H221.393L220.193 34ZM216.833 21.12L214.473 29.56H219.233L216.993 21.12H216.833ZM233.982 18.32C233.076 18.32 232.289 18.0133 231.622 17.4C230.982 16.7867 230.662 16.0533 230.662 15.2C230.662 14.3467 230.982 13.6133 231.622 13C232.289 12.3867 233.076 12.08 233.982 12.08C234.889 12.08 235.662 12.3867 236.302 13C236.942 13.6133 237.262 14.3467 237.262 15.2C237.262 16.0533 236.942 16.7867 236.302 17.4C235.662 18.0133 234.889 18.32 233.982 18.32ZM230.542 20.6H237.382V39H230.542V20.6Z" fill="#1D58EF"/>
<path d="M245.912 0C247.098 0 248.172 0.273333 249.132 0.82C250.092 1.35333 250.845 2.09333 251.392 3.04C251.938 3.97333 252.212 5.02 252.212 6.18C252.212 7.35333 251.945 8.41333 251.412 9.36C250.892 10.2933 250.152 11.0267 249.192 11.56C248.245 12.0933 247.152 12.36 245.912 12.36C244.645 12.36 243.532 12.0933 242.572 11.56C241.612 11.0267 240.872 10.2933 240.352 9.36C239.832 8.41333 239.572 7.35333 239.572 6.18C239.572 5.02 239.845 3.97333 240.392 3.04C240.952 2.09333 241.712 1.35333 242.672 0.82C243.645 0.273333 244.725 0 245.912 0ZM245.912 1.32C245.032 1.32 244.232 1.53333 243.512 1.96C242.792 2.38667 242.218 2.97333 241.792 3.72C241.378 4.45333 241.172 5.27333 241.172 6.18C241.172 7.08667 241.365 7.91333 241.752 8.66C242.152 9.39333 242.712 9.97333 243.432 10.4C244.152 10.8267 244.978 11.04 245.912 11.04C246.845 11.04 247.665 10.8333 248.372 10.42C249.092 9.99333 249.645 9.41333 250.032 8.68C250.418 7.93333 250.612 7.1 250.612 6.18C250.612 5.27333 250.405 4.45333 249.992 3.72C249.578 2.97333 249.012 2.38667 248.292 1.96C247.585 1.53333 246.792 1.32 245.912 1.32ZM248.192 9.02C247.432 9.26 246.625 9.38 245.772 9.38C244.785 9.38 244.045 9.12667 243.552 8.62C243.058 8.11333 242.812 7.33333 242.812 6.28C242.812 5.76 242.878 5.24667 243.012 4.74C243.158 4.22 243.312 3.87333 243.472 3.7C243.658 3.48667 244.025 3.31333 244.572 3.18C245.118 3.03333 245.685 2.96 246.272 2.96C246.832 2.96 247.445 3.01333 248.112 3.12C248.098 3.34667 248.072 3.61333 248.032 3.92C247.992 4.21333 247.952 4.47333 247.912 4.7C247.552 4.66 247.118 4.64 246.612 4.64C246.372 4.62667 246.145 4.63333 245.932 4.66C245.718 4.67333 245.578 4.69333 245.512 4.72C245.432 4.74667 245.365 4.92667 245.312 5.26C245.258 5.59333 245.232 5.90667 245.232 6.2C245.232 6.77333 245.352 7.16 245.592 7.36C245.845 7.56 246.272 7.66 246.872 7.66C247.192 7.66 247.572 7.64 248.012 7.6L248.192 9.02Z" fill="#1D58EF"/>
</svg>
