<svg width="85" height="63" viewBox="0 0 85 63" fill="none" xmlns="http://www.w3.org/2000/svg">
<rect x="45.0742" width="7.48056" height="39.1981" fill="#1D58EF"/>
<rect x="54.9485" y="9.27588" width="7.18133" height="29.9222" fill="#1D58EF"/>
<rect x="64.5234" y="16.7563" width="7.18133" height="19.7487" fill="#1D58EF"/>
<rect x="35.499" y="9.27588" width="7.18133" height="28.4261" fill="#1D58EF"/>
<rect x="25.6248" y="18.2524" width="7.48056" height="13.465" fill="#1D58EF"/>
<rect x="16.0496" y="23.6387" width="7.18133" height="8.079" fill="#1D58EF"/>
<path d="M45.7371 22.2019C48.1893 23.1637 49.0389 25.9861 47.3918 27.7102C46.1156 29.0612 44.7814 29.5436 39.6777 30.4618C37.3348 30.8712 34.9122 31.511 34.2888 31.843C33.2097 32.5038 33.2525 32.5487 35.9471 33.0025C47.1049 34.9022 55.927 35.3344 63.5071 34.4163C69.6622 33.616 72.2056 32.6993 77.2217 29.3109C81.2426 26.5817 82.2857 26.242 83.3986 27.4116C84.597 28.6712 83.9905 29.9183 80.9749 32.5374C72.6294 39.7409 62.2689 44.647 50.8909 46.7338C48.3819 47.2379 42.8922 47.7055 38.4463 47.8791C29.9733 48.1729 28.6357 48.4722 24.9873 50.9199C22.043 52.851 18.4585 56.4877 16.5825 59.4519C15.6034 60.9806 14.6192 62.2347 14.4094 62.2386C13.7389 62.2967 0.562134 53.3392 0.552841 52.8358C0.538478 52.0579 6.26757 39.5471 7.93547 36.6782C12.8595 28.302 18.9321 25.306 35.2628 23.2193C38.8225 22.7873 42.5072 22.3073 43.4277 22.153C44.3491 22.0444 45.3981 22.0251 45.7371 22.2019Z" fill="#EEAA6C"/>
</svg>
